<svg id="vector" xmlns="http://www.w3.org/2000/svg" width="32" height="32" viewBox="0 0 32 32"><path fill="#FFF" d="M15,9.495A1.48,1.48 0,0 1,16.493 8C17.323,8 18,8.638 18,9.495a1.49,1.49 0,0 1,-1.507 1.502A1.486,1.486 0,0 1,15 9.495zM15.102,13.176h2.781L17.883,24h-2.781L15.102,13.176z" fill-rule="evenodd" id="path_0"/><path fill="#FFF" d="M16,2.154c3.7,0 7.177,1.438 9.792,4.054A13.755,13.755 0,0 1,29.846 16c0,3.7 -1.438,7.177 -4.054,9.792A13.755,13.755 0,0 1,16 29.846c-3.7,0 -7.177,-1.438 -9.792,-4.054A13.755,13.755 0,0 1,2.154 16c0,-3.7 1.438,-7.177 4.054,-9.792A13.755,13.755 0,0 1,16 2.154zM16,0C7.162,0 0,7.162 0,16c0,8.838 7.162,16 16,16 8.838,0 16,-7.162 16,-16 0,-8.838 -7.162,-16 -16,-16z" fill-rule="evenodd" id="path_1"/></svg>