<svg id="vector" xmlns="http://www.w3.org/2000/svg" width="32" height="32" viewBox="0 0 32 32"><path fill="#FFF" d="M15,22.505A1.48,1.48 0,0 0,16.493 24c0.83,0 1.507,-0.638 1.507,-1.495a1.49,1.49 0,0 0,-1.507 -1.502c-0.816,0 -1.493,0.646 -1.493,1.502zM15.102,18.824h2.781L17.883,8h-2.781v10.824z" fill-rule="evenodd" id="path_0"/><path fill="#FFF" d="M16,29.846c3.7,0 7.177,-1.438 9.792,-4.054A13.755,13.755 0,0 0,29.846 16c0,-3.7 -1.438,-7.177 -4.054,-9.792A13.755,13.755 0,0 0,16 2.154c-3.7,0 -7.177,1.438 -9.792,4.054A13.755,13.755 0,0 0,2.154 16c0,3.7 1.438,7.177 4.054,9.792A13.755,13.755 0,0 0,16 29.846zM16,32C7.162,32 0,24.838 0,16 0,7.162 7.162,0 16,0c8.838,0 16,7.162 16,16 0,8.838 -7.162,16 -16,16z" fill-rule="evenodd" id="path_1"/></svg>